<svg width="160" height="158" viewBox="0 0 160 158" fill="none" xmlns="http://www.w3.org/2000/svg">
<g clip-path="url(#clip0)">
<rect width="160" height="158" fill="white"/>
<path d="M160 70.3057C160 51.5253 152.675 33.8695 139.373 20.5905C126.073 7.31236 108.391 0 89.5823 0C69.955 0 51.1583 8.22801 37.8476 22.6093C35.4676 21.7277 32.9257 21.2677 30.3137 21.2677C30.3134 21.2677 30.314 21.2677 30.3137 21.2677C24.5201 21.2677 19.0706 23.5302 14.9702 27.6381C14.8846 27.7241 14.804 27.8147 14.729 27.91L9.82948 34.1189C5.14594 40.0544 1.98117 47.113 0.677706 54.5313C-0.637012 62.0136 -0.0313727 69.7276 2.42931 76.8393C4.21279 81.9938 6.45659 85.9492 9.09884 88.5965L69.6721 149.268C71.7672 151.367 74.7063 153.232 78.4086 154.811C83.93 157.167 89.7935 158.322 95.6487 158.322C105.397 158.321 115.121 155.12 123.182 148.932L130.15 143.583C130.259 143.499 130.363 143.408 130.459 143.311C135.957 137.804 137.88 130.051 136.23 122.973C151.345 109.619 160 90.4621 160 70.3057V70.3057ZM126.174 138.756L119.377 143.974C108.261 152.507 93.5027 154.457 80.8615 149.063C77.8992 147.799 75.6229 146.382 74.0957 144.852L13.5221 84.1807C11.553 82.2079 9.80792 79.05 8.3357 74.7955C4.01403 62.3046 6.40659 48.5458 14.7358 37.9906L19.5175 31.9307C22.4223 29.0835 26.2492 27.5178 30.3134 27.5178C34.4354 27.5178 38.3133 29.1288 41.2327 32.0536L51.2395 42.0791C56.9928 47.843 56.9928 57.2213 51.2389 62.9859L40.0314 74.2208C38.8142 75.4411 38.8145 77.4165 40.0324 78.6359L79.5477 118.209C80.1339 118.796 80.9293 119.126 81.759 119.126H81.7599C82.5899 119.126 83.3856 118.795 83.9715 118.208L95.178 106.974C97.9653 104.181 101.668 102.643 105.603 102.643C109.539 102.643 113.241 104.181 116.029 106.974L126.035 116.999C132.015 122.99 132.061 132.708 126.174 138.756V138.756ZM121.396 103.504L120.452 102.559C116.484 98.5829 111.211 96.3935 105.604 96.3935C99.9963 96.3935 94.723 98.5829 90.7539 102.559L81.758 111.577L46.6594 76.4268L55.6634 67.4006C63.5882 59.4608 63.8382 46.6992 56.4137 38.455C65.0736 29.4751 77.0498 24.3624 89.5823 24.3624C114.961 24.3624 135.607 44.9723 135.607 70.3054C135.607 82.8648 130.452 94.8519 121.396 103.504V103.504ZM130.459 112.584L125.813 107.929C136.038 98.1073 141.857 84.5298 141.857 70.3054C141.857 41.526 118.407 18.1123 89.5823 18.1123C75.3991 18.1123 61.8435 23.8777 52.017 34.0105L45.6566 27.6381C44.9719 26.9522 44.2497 26.3178 43.4946 25.7369C55.5518 13.3231 72.21 6.25015 89.5823 6.25015C124.964 6.25015 153.75 34.9852 153.75 70.3054C153.75 87.9249 146.489 104.707 133.734 116.786C132.839 115.288 131.747 113.874 130.459 112.584V112.584Z" fill="url(#paint0_linear)"/>
<path d="M111.149 70.4999H110.798C110.836 63.9232 110.856 56.8943 110.775 55.9171C110.591 53.7121 109.267 51.9148 107.401 51.3389C105.55 50.7676 103.585 51.4861 102.144 53.2614C100.588 55.179 93.4057 68.1811 91.2416 72.1203C90.7097 73.0884 90.7284 74.2653 91.291 75.2163C91.8535 76.167 92.876 76.7501 93.9804 76.7501H104.506C104.493 78.5029 104.48 80.1833 104.467 81.7015C104.452 83.4274 105.839 84.8384 107.565 84.8531C107.574 84.8534 107.584 84.8534 107.593 84.8534C109.306 84.8534 110.702 83.4718 110.717 81.7552C110.725 80.818 110.74 79.003 110.757 76.7501H111.148C112.874 76.7501 114.273 75.351 114.273 73.625C114.274 71.899 112.874 70.4999 111.149 70.4999V70.4999ZM104.547 70.4999H99.2802C101.234 66.9914 103.138 63.6254 104.582 61.1425C104.581 63.707 104.567 67.0421 104.547 70.4999V70.4999Z" fill="url(#paint1_linear)"/>
<path d="M86.6008 79.474C83.8526 79.5087 80.937 79.5315 78.5191 79.5362C80.0369 77.4977 82.1485 74.6008 85.0036 70.5041C86.7515 67.9962 87.8912 65.6262 88.3912 63.4599C88.5084 62.9649 88.6062 62.0224 88.6065 61.6952C88.6121 56.0982 84.0664 51.5449 78.486 51.5449C73.6596 51.5449 69.4829 54.9888 68.5548 59.7339C68.2235 61.4276 69.3279 63.0693 71.022 63.4005C72.7155 63.7315 74.3574 62.6271 74.6887 60.9333C75.0443 59.1148 76.6412 57.7951 78.486 57.7951C80.5638 57.7951 82.2642 59.4535 82.3526 61.5258L82.2676 62.1933C81.9267 63.549 81.1226 65.1421 79.8757 66.9309C75.5453 73.1445 72.9611 76.5424 71.5733 78.368C69.8579 80.6234 69.0751 81.6528 69.6076 83.381C69.9204 84.3963 70.6892 85.176 71.7167 85.5198C72.1346 85.6598 72.5352 85.7938 77.8506 85.7938C79.9369 85.7938 82.7811 85.7732 86.6793 85.7238C88.4049 85.7023 89.7865 84.2854 89.7647 82.5597C89.7434 80.8337 88.3212 79.4565 86.6008 79.474Z" fill="url(#paint2_linear)"/>
</g>
<defs>
<linearGradient id="paint0_linear" x1="79.9999" y1="0" x2="79.9999" y2="158.322" gradientUnits="userSpaceOnUse">
<stop stop-color="#54A079"/>
<stop offset="1" stop-color="#00783A" stop-opacity="0.48"/>
</linearGradient>
<linearGradient id="paint1_linear" x1="102.564" y1="51.1465" x2="102.564" y2="84.8534" gradientUnits="userSpaceOnUse">
<stop stop-color="#54A079"/>
<stop offset="1" stop-color="#00783A" stop-opacity="0.48"/>
</linearGradient>
<linearGradient id="paint2_linear" x1="79.1305" y1="51.5449" x2="79.1305" y2="85.7938" gradientUnits="userSpaceOnUse">
<stop stop-color="#54A079"/>
<stop offset="1" stop-color="#00783A" stop-opacity="0.48"/>
</linearGradient>
<clipPath id="clip0">
<rect width="160" height="158" fill="white"/>
</clipPath>
</defs>
</svg>
