<svg width="160" height="160" viewBox="0 0 160 160" fill="none" xmlns="http://www.w3.org/2000/svg">
<rect width="160" height="160" fill="white"/>
<path d="M39.8954 11.6106C38.4079 10.34 36.2121 10.3571 34.7446 11.6506L24.0133 21.2539V19.9955C24.0133 18.5229 22.8198 17.3294 21.3473 17.3294C19.8748 17.3294 18.6813 18.5229 18.6813 19.9955V26.0289L14.2366 30.0068C13.1559 30.9926 13.0712 32.665 14.047 33.7551C15.0227 34.8452 16.6942 34.9452 17.7931 33.9794L37.3437 16.479L56.8943 33.9794C57.6023 34.6252 58.6027 34.8414 59.5141 34.5456C60.4258 34.2497 61.1082 33.4873 61.3019 32.5485C61.4956 31.6099 61.1706 30.6395 60.4508 30.0068L39.8954 11.6106Z" fill="url(#paint0_linear)"/>
<path d="M53.3391 37.3262C51.8666 37.3262 50.6731 38.5197 50.6731 39.9922V58.6549H24.0117V39.9922C24.0117 38.5197 22.8182 37.3262 21.3457 37.3262C19.8732 37.3262 18.6797 38.5197 18.6797 39.9922V60.348C18.7059 62.3835 20.3768 64.0125 22.4124 63.9872H52.2727C54.3095 64.0078 55.9789 62.3766 56.0054 60.3399V39.9922C56.0051 38.5197 54.8113 37.3262 53.3391 37.3262Z" fill="url(#paint1_linear)"/>
<path d="M37.3424 69.3193C27.0351 69.3193 18.6797 77.6751 18.6797 87.982C18.6797 98.2889 27.0355 106.645 37.3424 106.645C47.6493 106.645 56.0051 98.2889 56.0051 87.982C55.9932 77.6798 47.6446 69.3309 37.3424 69.3193ZM24.0117 87.982C24.0198 81.6496 28.4736 76.1935 34.6761 74.9182V86.4705L24.8115 92.3864C24.2951 90.9748 24.0245 89.4852 24.0117 87.982ZM27.5591 96.958L36.929 91.336L44.6821 99.0891C39.2354 102.723 31.9488 101.816 27.5591 96.958ZM48.452 95.3192L40.0084 86.8782V74.9182C44.3488 75.7977 47.9674 78.7789 49.6611 82.8709C51.3545 86.9629 50.9015 91.6294 48.452 95.3192Z" fill="url(#paint2_linear)"/>
<path d="M143.987 47.9904V38.8642C143.985 36.5428 142.104 34.6613 139.782 34.6598H132.194C129.873 34.6613 127.992 36.5428 127.99 38.8642V47.9904H122.658V31.2739C122.655 28.7279 120.592 26.6645 118.045 26.6614H111.273C108.727 26.6645 106.664 28.7279 106.661 31.2739V47.9904H101.329V18.6631C101.329 15.7181 98.9417 13.3307 95.9967 13.3307H90.6643C87.7193 13.3307 85.332 15.7181 85.332 18.6631V47.9904H82.666C81.1935 47.9904 80 46.7966 80 45.3244V13.331C80 11.8585 78.8062 10.665 77.334 10.665C75.8618 10.665 74.668 11.8585 74.668 13.331V45.3244C74.668 49.7416 78.2488 53.3228 82.6663 53.3228H143.987C145.46 53.3228 146.653 52.1293 146.653 50.6568C146.653 49.1842 145.459 47.9904 143.987 47.9904ZM95.9967 47.9904H90.6643V18.6631H95.9967V47.9904ZM117.326 47.9904H111.993V31.9937H117.326V47.9904ZM138.654 47.9904H133.322V39.9921H138.655V47.9904H138.654Z" fill="url(#paint3_linear)"/>
<path d="M143.987 101.313H82.666C81.1935 101.313 80 100.119 80 98.6467V94.4182L88.7794 85.6388C89.8326 84.6277 91.496 84.6277 92.5493 85.6388L95.6739 88.7634C98.7973 91.8859 103.86 91.8859 106.983 88.7634L118.106 77.6404C119.16 76.6294 120.823 76.6294 121.876 77.6404L125.001 80.7679C128.128 83.8816 133.184 83.8816 136.311 80.7679L145.871 71.2071C146.882 70.161 146.867 68.4979 145.839 67.4697C144.81 66.4412 143.148 66.4268 142.102 67.4372L132.541 76.9952C131.5 78.036 129.812 78.036 128.771 76.9952L125.646 73.8706C122.481 70.8499 117.501 70.8499 114.337 73.8706L103.214 84.9936C102.173 86.0343 100.485 86.0343 99.4438 84.9936L96.3219 81.8689C93.1563 78.848 88.1752 78.848 85.0096 81.8689L80 86.8785V66.6533C80 65.1808 78.8062 63.9873 77.334 63.9873C75.8618 63.9873 74.668 65.1811 74.668 66.6533V98.6467C74.668 103.064 78.2488 106.645 82.6663 106.645H143.987C145.46 106.645 146.653 105.451 146.653 103.979C146.653 102.506 145.459 101.313 143.987 101.313Z" fill="url(#paint4_linear)"/>
<path d="M159.983 123.852V14.7835C160.354 7.03073 154.402 0.430223 146.653 0H13.3472C5.59757 0.430536 -0.354322 7.03104 0.0165386 14.7835V123.852C-0.355572 131.605 5.59632 138.207 13.3472 138.638H56.0049V143.97H45.3406C39.4509 143.97 34.6762 148.745 34.6762 154.635V157.301C34.6762 158.773 35.8697 159.967 37.3422 159.967H122.658C124.131 159.967 125.324 158.773 125.324 157.301V154.635C125.324 148.745 120.549 143.97 114.66 143.97H103.995V138.638H146.653C154.404 138.208 160.356 131.605 159.983 123.852ZM114.659 149.303C117.604 149.303 119.992 151.69 119.992 154.635H40.0083C40.0083 151.69 42.3956 149.303 45.3406 149.303H114.659ZM61.3373 143.97V138.638H98.663V143.97H61.3373ZM146.653 133.306H13.3472C8.5479 132.865 4.98832 128.658 5.34887 123.852V117.309H154.651V123.852C155.012 128.658 151.452 132.865 146.653 133.306ZM154.651 14.7835V111.977H5.34887V14.7835C4.98832 9.97793 8.54821 5.77131 13.3472 5.33202H146.653C151.452 5.77131 155.012 9.97793 154.651 14.7835Z" fill="url(#paint5_linear)"/>
<defs>
<linearGradient id="paint0_linear" x1="37.3621" y1="10.6689" x2="37.3621" y2="34.6758" gradientUnits="userSpaceOnUse">
<stop stop-color="#54A079"/>
<stop offset="1" stop-color="#00783A" stop-opacity="0.48"/>
</linearGradient>
<linearGradient id="paint1_linear" x1="37.3425" y1="37.3262" x2="37.3425" y2="63.9875" gradientUnits="userSpaceOnUse">
<stop stop-color="#54A079"/>
<stop offset="1" stop-color="#00783A" stop-opacity="0.48"/>
</linearGradient>
<linearGradient id="paint2_linear" x1="37.3424" y1="69.3193" x2="37.3424" y2="106.645" gradientUnits="userSpaceOnUse">
<stop stop-color="#54A079"/>
<stop offset="1" stop-color="#00783A" stop-opacity="0.48"/>
</linearGradient>
<linearGradient id="paint3_linear" x1="110.661" y1="10.665" x2="110.661" y2="53.3228" gradientUnits="userSpaceOnUse">
<stop stop-color="#54A079"/>
<stop offset="1" stop-color="#00783A" stop-opacity="0.48"/>
</linearGradient>
<linearGradient id="paint4_linear" x1="110.661" y1="63.9873" x2="110.661" y2="106.645" gradientUnits="userSpaceOnUse">
<stop stop-color="#54A079"/>
<stop offset="1" stop-color="#00783A" stop-opacity="0.48"/>
</linearGradient>
<linearGradient id="paint5_linear" x1="80" y1="0" x2="80" y2="159.967" gradientUnits="userSpaceOnUse">
<stop stop-color="#54A079"/>
<stop offset="1" stop-color="#00783A" stop-opacity="0.48"/>
</linearGradient>
</defs>
</svg>
