<svg width="177" height="33" viewBox="0 0 177 33" fill="none" xmlns="http://www.w3.org/2000/svg">
<path d="M0.886719 32V9.53906H1.29102L4.79492 18.0742V32H0.886719ZM0.886719 3.02539V0.554688H4.07617L14.4082 25.5762L21.7754 8.91016H22.2246V17.625L15.8906 32H12.9258L0.886719 3.02539ZM24.4707 32V0.554688H28.3789V32H24.4707ZM40.2383 32V28.2715C38.8607 28.0618 37.7376 26.8789 36.8691 24.7227C36.0605 22.6562 35.6562 20.0059 35.6562 16.7715V14.8848C35.7461 10.5723 36.6146 7.45768 38.2617 5.54102C38.8906 4.82227 39.5645 4.41797 40.2832 4.32812V0.599609C37.1686 0.719401 34.8776 2.54622 33.4102 6.08008C32.362 8.68555 31.8379 12.0547 31.8379 16.1875C31.8379 24.5729 33.7845 29.6491 37.6777 31.416C38.4863 31.7754 39.3398 31.9701 40.2383 32ZM42.8887 32C46.0033 31.9102 48.2793 30.0534 49.7168 26.4297C50.735 23.8242 51.2441 20.4102 51.2441 16.1875C51.2441 8.10156 49.3724 3.13021 45.6289 1.27344C44.7604 0.854167 43.832 0.629557 42.8438 0.599609V4.32812C44.2214 4.50781 45.3594 5.69076 46.2578 7.87695C47.0664 9.85352 47.4707 12.1895 47.4707 14.8848V16.7715C47.4707 23.0605 46.2428 26.804 43.7871 28.002C43.4876 28.1217 43.1882 28.2116 42.8887 28.2715V32ZM64.541 24.9023L68.1348 23.6445C68.3145 24.9023 68.7936 25.9355 69.5723 26.7441C70.3809 27.5527 71.1445 28.0469 71.8633 28.2266L72.8965 28.4961V32.1348C70.2611 32.1348 68.0449 31.0117 66.248 28.7656C65.14 27.3581 64.571 26.0703 64.541 24.9023ZM64.9004 9.04492C64.9004 5.81055 66.293 3.38477 69.0781 1.76758C70.4557 0.958984 71.7285 0.554688 72.8965 0.554688V4.23828C71.8483 4.35807 70.86 4.91211 69.9316 5.90039C69.0931 6.82878 68.6738 7.89193 68.6738 9.08984C68.6738 10.9167 69.9915 12.2943 72.627 13.2227C73.2858 13.4323 74.2891 13.7168 75.6367 14.0762C77.0443 14.4655 78.0326 14.765 78.6016 14.9746C81.2969 16.0827 83.0189 17.5951 83.7676 19.5117C84.1569 20.4701 84.3516 21.5482 84.3516 22.7461C84.3516 25.3516 83.3483 27.6126 81.3418 29.5293C79.515 31.2663 77.4486 32.1348 75.1426 32.1348V28.4961C76.3704 28.4362 77.5534 27.8522 78.6914 26.7441C79.8294 25.5762 80.4134 24.2435 80.4434 22.7461C80.4434 20.6497 78.9909 19.1224 76.0859 18.1641C75.457 17.9544 74.4987 17.6999 73.2109 17.4004C71.8333 17.071 70.9049 16.8014 70.4258 16.5918C67.8802 15.5436 66.248 14.166 65.5293 12.459C65.11 11.4707 64.9004 10.3327 64.9004 9.04492ZM75.1426 4.23828V0.554688C77.748 0.554688 79.9193 1.70768 81.6562 4.01367C82.5247 5.18164 83.0039 6.22982 83.0938 7.1582L79.4551 8.37109C79.0358 6.27474 77.8379 4.94206 75.8613 4.37305C75.3822 4.2832 75.1426 4.23828 75.1426 4.23828ZM87.3613 32V0.554688H103.713V4.41797H91.2695V14.3906H99.4902V18.2988H91.2695V28.1367H103.713V32H87.3613ZM107.352 32V0.554688H111.26V32H107.352ZM113.506 18.3887V14.8398H117.594C120.768 14.7799 122.37 13.013 122.4 9.53906C122.34 5.97526 120.529 4.17839 116.965 4.14844H113.506V0.554688H117.684C122.026 0.704427 124.706 2.51628 125.725 5.99023C126.024 6.97852 126.174 8.05664 126.174 9.22461C126.144 12.6986 125.111 15.1393 123.074 16.5469C124.811 17.4753 125.859 19.1673 126.219 21.623C126.249 21.8327 126.279 22.0423 126.309 22.252L127.072 32H123.389L122.715 24.0039C122.475 21.4284 121.816 19.7812 120.738 19.0625C120.02 18.5833 119.046 18.3587 117.818 18.3887H113.506ZM130.127 32V0.554688H134.035V32H130.127ZM137.764 32V0.554688H154.115V4.41797H141.672V14.3906H149.893V18.2988H141.672V28.1367H154.115V32H137.764ZM156.99 24.9023L160.584 23.6445C160.764 24.9023 161.243 25.9355 162.021 26.7441C162.83 27.5527 163.594 28.0469 164.312 28.2266L165.346 28.4961V32.1348C162.71 32.1348 160.494 31.0117 158.697 28.7656C157.589 27.3581 157.02 26.0703 156.99 24.9023ZM157.35 9.04492C157.35 5.81055 158.742 3.38477 161.527 1.76758C162.905 0.958984 164.178 0.554688 165.346 0.554688V4.23828C164.298 4.35807 163.309 4.91211 162.381 5.90039C161.542 6.82878 161.123 7.89193 161.123 9.08984C161.123 10.9167 162.441 12.2943 165.076 13.2227C165.735 13.4323 166.738 13.7168 168.086 14.0762C169.493 14.4655 170.482 14.765 171.051 14.9746C173.746 16.0827 175.468 17.5951 176.217 19.5117C176.606 20.4701 176.801 21.5482 176.801 22.7461C176.801 25.3516 175.798 27.6126 173.791 29.5293C171.964 31.2663 169.898 32.1348 167.592 32.1348V28.4961C168.82 28.4362 170.003 27.8522 171.141 26.7441C172.279 25.5762 172.863 24.2435 172.893 22.7461C172.893 20.6497 171.44 19.1224 168.535 18.1641C167.906 17.9544 166.948 17.6999 165.66 17.4004C164.283 17.071 163.354 16.8014 162.875 16.5918C160.329 15.5436 158.697 14.166 157.979 12.459C157.559 11.4707 157.35 10.3327 157.35 9.04492ZM167.592 4.23828V0.554688C170.197 0.554688 172.368 1.70768 174.105 4.01367C174.974 5.18164 175.453 6.22982 175.543 7.1582L171.904 8.37109C171.485 6.27474 170.287 4.94206 168.311 4.37305C167.831 4.2832 167.592 4.23828 167.592 4.23828Z" fill="white"/>
</svg>
