<svg width="160" height="160" viewBox="0 0 160 160" fill="none" xmlns="http://www.w3.org/2000/svg">
<rect width="160" height="160" fill="white"/>
<path d="M156.875 65.2341H136.875C135.149 65.2341 133.75 66.6334 133.75 68.3591V107.578C133.75 109.303 135.149 104.453 136.875 104.453C138.601 104.453 140 109.303 140 107.578V71.4841H153.75V153.75H146.875H140V107.578C140 105.852 138.601 104.453 136.875 104.453C135.149 104.453 133.75 105.852 133.75 107.578V153.75H127.5V89.0625C127.5 87.3369 126.101 85.9375 124.375 85.9375H104.375C102.649 85.9375 101.25 87.3369 101.25 89.0625V153.75H95V110.938C95 109.212 93.6009 107.812 91.875 107.812H71.875C70.1491 107.812 68.75 109.212 68.75 110.938V153.75H62.5V128.867C62.5 127.142 61.1009 125.742 59.375 125.742H39.375C37.6491 125.742 36.25 127.142 36.25 128.867V153.75H9.375C7.65188 153.75 6.25 152.348 6.25 150.625V9.375C6.25 7.65188 7.65188 6.25 9.375 6.25H89.9922V26.8759C89.9922 32.0453 94.1978 36.2509 99.3672 36.2509H119.992V74.6875C119.992 76.4131 121.391 77.8125 123.117 77.8125C124.843 77.8125 126.242 76.4131 126.242 74.6875V33.1259C126.242 32.2972 125.913 31.5025 125.327 30.9163L95.3269 0.915312C94.7406 0.329375 93.9459 0 93.1172 0H9.375C4.20563 0 0 4.20563 0 9.375V150.625C0 155.794 4.20563 160 9.375 160H156.875C158.601 160 160 158.601 160 156.875V68.3591C160 66.6334 158.601 65.2341 156.875 65.2341ZM96.2422 10.6697L115.573 30.0009H99.3672C97.6438 30.0009 96.2422 28.5991 96.2422 26.8759V10.6697ZM56.25 153.75H42.5V131.992H56.25V153.75ZM88.75 153.75H75V114.062H88.75V153.75ZM121.25 153.75H107.5V92.1875H121.25V153.75Z" fill="url(#paint0_linear)"/>
<path d="M45.4922 27.1035C43.7662 27.1035 42.3672 28.5029 42.3672 30.2285V35.8501C27.9825 37.4116 16.75 49.6304 16.75 64.4235C16.75 80.2719 29.6437 93.1657 45.4922 93.1657C60.2853 93.1657 72.504 81.9335 74.0656 67.5485H79.6869C81.4128 67.5485 82.8119 66.1491 82.8119 64.4235C82.8119 43.8451 66.0703 27.1035 45.4922 27.1035ZM45.4922 86.9154C33.09 86.9154 23 76.8254 23 64.4232C23 53.0816 31.4391 43.6735 42.3672 42.1476V64.4232C42.3672 66.1488 43.7662 67.5482 45.4922 67.5482H67.7678C66.2419 78.4763 56.8337 86.9154 45.4922 86.9154ZM48.6172 61.2985V61.2982V33.5095C63.2584 34.9788 74.9366 46.6573 76.4059 61.2985H48.6172Z" fill="url(#paint1_linear)"/>
<defs>
<linearGradient id="paint0_linear" x1="80" y1="0" x2="80" y2="160" gradientUnits="userSpaceOnUse">
<stop stop-color="#54A079"/>
<stop offset="1" stop-color="#00783A" stop-opacity="0.48"/>
</linearGradient>
<linearGradient id="paint1_linear" x1="49.7809" y1="27.1035" x2="49.7809" y2="93.1657" gradientUnits="userSpaceOnUse">
<stop stop-color="#54A079"/>
<stop offset="1" stop-color="#00783A" stop-opacity="0.48"/>
</linearGradient>
</defs>
</svg>
